<mxfile host="app.diagrams.net" modified="2023-11-21T14:25:28.663Z" agent="Mozilla/5.0 (Windows NT 10.0; Win64; x64; rv:109.0) Gecko/20100101 Firefox/119.0" etag="hQIL7Pw57hSLOuNNs10v" version="22.1.3" type="github">
  <diagram name="Page-1" id="-VF_EbaYCvRm8STx8MoL">
    <mxGraphModel dx="1434" dy="746" grid="1" gridSize="10" guides="1" tooltips="1" connect="1" arrows="1" fold="1" page="1" pageScale="1" pageWidth="850" pageHeight="1100" math="0" shadow="0">
      <root>
        <mxCell id="0" />
        <mxCell id="1" parent="0" />
        <mxCell id="_YTliVMQYqdYe4Vga_VR-2" value="&lt;font style=&quot;font-size: 21px;&quot;&gt;Start&lt;/font&gt;" style="strokeWidth=2;html=1;shape=mxgraph.flowchart.terminator;whiteSpace=wrap;fontFamily=Garamond;" vertex="1" parent="1">
          <mxGeometry x="550" y="30" width="100" height="60" as="geometry" />
        </mxCell>
        <mxCell id="_YTliVMQYqdYe4Vga_VR-3" value="&lt;font style=&quot;font-size: 21px;&quot; face=&quot;Garamond&quot;&gt;Input&lt;/font&gt;" style="shape=parallelogram;perimeter=parallelogramPerimeter;whiteSpace=wrap;html=1;fixedSize=1;" vertex="1" parent="1">
          <mxGeometry x="540" y="170" width="120" height="60" as="geometry" />
        </mxCell>
        <mxCell id="_YTliVMQYqdYe4Vga_VR-4" value="&lt;font style=&quot;font-size: 21px;&quot;&gt;String[i]&lt;/font&gt;" style="shape=parallelogram;perimeter=parallelogramPerimeter;whiteSpace=wrap;html=1;fixedSize=1;fontFamily=Garamond;fontSize=16;" vertex="1" parent="1">
          <mxGeometry x="540" y="310" width="120" height="60" as="geometry" />
        </mxCell>
        <mxCell id="_YTliVMQYqdYe4Vga_VR-5" value="&lt;font style=&quot;font-size: 21px;&quot;&gt;= % ?&lt;font style=&quot;font-size: 21px;&quot;&gt;&lt;br&gt;&lt;/font&gt;&lt;/font&gt;" style="rhombus;whiteSpace=wrap;html=1;fontFamily=Garamond;direction=south;" vertex="1" parent="1">
          <mxGeometry x="545" y="410" width="110" height="120" as="geometry" />
        </mxCell>
        <mxCell id="_YTliVMQYqdYe4Vga_VR-6" value="&lt;font style=&quot;font-size: 19px;&quot;&gt;Conversion&lt;br&gt;Specifier ?&lt;br&gt;&lt;/font&gt;" style="rhombus;whiteSpace=wrap;html=1;" vertex="1" parent="1">
          <mxGeometry x="535" y="580" width="130" height="141" as="geometry" />
        </mxCell>
      </root>
    </mxGraphModel>
  </diagram>
</mxfile>
